<svg width="709" height="602" viewBox="0 0 709 602" fill="none" xmlns="http://www.w3.org/2000/svg">
<path d="M135.108 322.008H118.754V599.973H135.108V322.008Z" fill="#FFBE21"/>
<path d="M135.115 325.83H118.754" stroke="#A15842" stroke-width="4" stroke-miterlimit="10"/>
<path d="M44.5363 544.198C46.1929 539.447 49.2868 535.329 53.3889 532.415C57.4909 529.501 62.398 527.935 67.4298 527.935C72.4615 527.935 77.3686 529.501 81.4707 532.415C85.5728 535.329 88.6667 539.447 90.3233 544.198C91.9045 539.662 94.7974 535.698 98.635 532.809C102.473 529.919 107.082 528.235 111.878 527.97C109.737 524.154 107.187 520.581 104.274 517.316L95.4707 507.414C92.7339 504.337 91.0103 500.493 90.5338 496.404C90.0572 492.314 90.8509 488.177 92.8071 484.553L100.278 470.67C98.1809 472.78 86.0549 484.134 67.6495 484.134C49.2441 484.134 37.1182 472.78 35.0206 470.67H34.9873L42.4653 484.553C44.4128 488.184 45.1944 492.326 44.7035 496.417C44.2125 500.507 42.4731 504.347 39.7218 507.414L30.9253 517.276C28.0066 520.541 25.4502 524.114 23.3008 527.93C28.0456 528.26 32.5886 529.979 36.3643 532.871C40.14 535.764 42.9819 539.703 44.5363 544.198Z" fill="#FB4718"/>
<path d="M113.218 558.228C108.185 558.229 103.276 559.796 99.1742 562.712C95.072 565.629 91.979 569.749 90.3243 574.503C88.6708 569.748 85.5781 565.627 81.4756 562.71C77.3731 559.793 72.4644 558.226 67.4307 558.226C62.3971 558.226 57.4883 559.793 53.3859 562.71C49.2834 565.627 46.1907 569.748 44.5372 574.503C42.5349 568.758 38.4472 563.975 33.0845 561.103C27.7218 558.23 21.4756 557.478 15.584 558.994C15.9223 574.361 22.1151 589.019 32.8973 599.973H102.277C113.038 589.042 119.229 574.422 119.59 559.087C117.514 558.518 115.371 558.229 113.218 558.228V558.228Z" fill="#FB4718"/>
<path d="M67.5977 484.16C86.0031 484.16 98.1291 472.807 100.227 470.696H34.9688C37.0663 472.787 49.1923 484.16 67.5977 484.16Z" fill="#30242A"/>
<path d="M44.539 574.503C46.1925 569.748 49.2852 565.627 53.3877 562.71C57.4901 559.793 62.3989 558.226 67.4325 558.226C72.4662 558.226 77.3749 559.793 81.4774 562.71C85.5799 565.627 88.6726 569.748 90.3261 574.503C92.345 568.697 96.4942 563.875 101.934 561.013C107.374 558.151 113.697 557.463 119.626 559.087C119.899 548.208 117.228 537.456 111.894 527.97C107.098 528.235 102.489 529.919 98.6511 532.808C94.8135 535.698 91.9205 539.662 90.3394 544.198C88.6827 539.447 85.5889 535.328 81.4868 532.414C77.3847 529.5 72.4776 527.935 67.4459 527.935C62.4141 527.935 57.507 529.5 53.4049 532.414C49.3028 535.328 46.209 539.447 44.5523 544.198C42.9883 539.714 40.1423 535.788 36.3674 532.906C32.5924 530.025 28.0546 528.316 23.3169 527.99C18.0072 537.444 15.3413 548.154 15.5991 558.994C21.4907 557.478 27.7369 558.23 33.0996 561.103C38.4623 563.975 42.55 568.758 44.5523 574.503H44.539Z" fill="#FFDB44"/>
<path d="M72.4336 482.256C73.7654 474.106 79.8184 441.796 95.0408 424.237" stroke="#30242A" stroke-width="4" stroke-miterlimit="10" stroke-linecap="round"/>
<path d="M65.4086 482.489C65.3088 473.233 64.3565 427.785 55.3203 400.67" stroke="#30242A" stroke-width="4" stroke-miterlimit="10" stroke-linecap="round"/>
<path d="M105.459 450.689C118.806 444.816 128.555 437.621 127.234 434.618C125.912 431.616 114.022 433.942 100.675 439.815C87.3277 445.688 77.5789 452.883 78.9001 455.886C80.2213 458.888 92.1122 456.562 105.459 450.689Z" fill="#30242A"/>
<path d="M105.449 368.074C110.248 361.587 112.304 354.972 110.042 353.299C107.78 351.626 102.057 355.528 97.2585 362.015C92.4601 368.502 90.4039 375.117 92.6658 376.79C94.9276 378.463 100.651 374.561 105.449 368.074Z" fill="#30242A"/>
<path d="M33.1877 455.3C50.5874 452.669 64.3159 448.045 63.8512 444.972C63.3865 441.9 48.9046 441.542 31.5049 444.173C14.1052 446.805 0.376713 451.429 0.841411 454.502C1.30611 457.574 15.7881 457.932 33.1877 455.3Z" fill="#30242A"/>
<path d="M21.0316 409.913V409.96C23.6024 411.397 25.5414 413.746 26.4663 416.542C27.3912 419.339 27.2348 422.381 26.028 425.067C24.8211 427.754 22.6515 429.892 19.9467 431.058C17.2419 432.224 14.1984 432.335 11.416 431.368V431.408C25.9992 437.961 39.9896 438.46 42.6532 432.527C45.3168 426.594 35.6214 416.466 21.0316 409.913Z" fill="#FF7235"/>
<path d="M64.1486 362.421C61.0455 361.615 57.0102 366.31 54.0603 373.575C50.5111 364.752 45.3637 358.845 41.8944 359.991C38.425 361.136 37.8057 368.94 40.2096 378.143C33.5107 374.068 27.4777 372.696 25.46 375.193C22.8897 378.376 27.8439 386.633 36.5272 393.645C38.9976 395.658 41.6557 397.428 44.4647 398.932C44.9435 397.03 45.89 395.278 47.218 393.835C48.5461 392.392 50.2137 391.303 52.0693 390.668C53.925 390.033 55.9099 389.871 57.8438 390.198C59.7777 390.525 61.5993 391.33 63.1431 392.54C64.4446 389.739 65.4834 386.823 66.2462 383.83C69.0496 373.036 68.1107 363.447 64.1486 362.421Z" fill="#FF7235"/>
<path d="M131.843 411.438C130.884 408.375 124.765 407.442 117.04 408.774C122.647 401.096 124.938 393.605 122.135 391.268C119.331 388.93 112.372 392.533 105.833 399.438C105.753 391.594 103.722 385.747 100.54 385.355C96.4842 384.855 92.0893 393.432 90.7308 404.499C90.3283 407.663 90.2302 410.859 90.4378 414.041C92.3061 413.439 94.2951 413.314 96.2242 413.677C98.1532 414.039 99.9609 414.879 101.483 416.118C103.005 417.358 104.193 418.958 104.939 420.773C105.685 422.589 105.965 424.562 105.753 426.514C108.82 426.126 111.845 425.457 114.79 424.516C125.424 421.207 133.062 415.34 131.843 411.438Z" fill="#FF7235"/>
<path d="M101.571 416.186C100.048 414.915 98.2292 414.051 96.2826 413.673C94.3359 413.294 92.3253 413.414 90.4375 414.022C90.8171 419.289 92.1489 423.344 94.1532 424.816C96.0244 426.547 100.353 427.126 105.74 426.494C105.95 424.565 105.679 422.614 104.952 420.816C104.224 419.017 103.063 417.426 101.571 416.186V416.186Z" fill="#30242A"/>
<path d="M52.1893 390.629C50.3064 391.25 48.611 392.337 47.2606 393.789C45.9102 395.24 44.9485 397.01 44.4648 398.932C49.1261 401.396 53.268 402.395 55.5986 401.489C58.0558 400.824 60.8326 397.447 63.1433 392.54C61.617 391.342 59.8179 390.54 57.9066 390.207C55.9952 389.873 54.031 390.018 52.1893 390.629V390.629Z" fill="#30242A"/>
<path d="M22.3286 429.683C21.0764 428.985 20.1321 427.842 19.6827 426.481C19.2333 425.119 19.3115 423.639 19.902 422.332C20.4924 421.026 21.552 419.988 22.8708 419.426C24.1896 418.864 25.6716 418.817 27.0231 419.295C26.8668 417.369 26.2382 415.51 25.1929 413.884C24.1476 412.258 22.7179 410.915 21.03 409.973L11.3945 431.368C13.2157 432.004 15.1651 432.183 17.0716 431.889C18.9781 431.596 20.7833 430.838 22.3286 429.683Z" fill="#F5EBDD"/>
<path d="M19.88 422.338C19.2992 423.645 19.2287 425.121 19.6822 426.477C20.1358 427.833 21.0806 428.969 22.3305 429.663C23.931 428.473 25.2019 426.895 26.0233 425.077C26.8446 423.26 27.1894 421.263 27.0251 419.275C25.6673 418.792 24.177 418.839 22.8522 419.407C21.5275 419.975 20.466 421.022 19.88 422.338V422.338Z" fill="#4856DF"/>
<path d="M459.946 433.086H290.588L293.451 421.726H367.792L396.146 310.841C400.009 295.737 408.789 282.348 421.103 272.787C433.417 263.226 448.564 258.036 464.154 258.035C502.303 258.035 530.218 293.994 520.755 330.951L503.235 399.465C500.777 409.08 495.187 417.603 487.349 423.691C479.511 429.778 469.87 433.084 459.946 433.086Z" fill="#FFB494"/>
<path d="M291.9 538.025V550.051H399.836V538.025H291.9Z" fill="#A15842"/>
<path d="M417.612 593.514L389.537 426.407H302.185L274.111 593.514C273.978 594.309 274.02 595.123 274.234 595.9C274.449 596.677 274.829 597.398 275.35 598.013C275.871 598.627 276.52 599.121 277.251 599.46C277.982 599.798 278.779 599.974 279.584 599.973V599.973C280.85 599.972 282.078 599.538 283.064 598.744C284.05 597.949 284.735 596.842 285.005 595.605L321.776 426.407H369.973L406.731 595.605C407 596.843 407.684 597.951 408.67 598.745C409.656 599.54 410.885 599.973 412.151 599.973V599.973C412.956 599.972 413.751 599.795 414.48 599.456C415.21 599.116 415.857 598.622 416.376 598.007C416.896 597.393 417.275 596.673 417.489 595.897C417.702 595.121 417.744 594.308 417.612 593.514V593.514Z" fill="#A15842"/>
<path d="M381.316 538.025V550.051H489.252V538.025H381.316Z" fill="#FFBE21"/>
<path d="M507.031 593.514L478.93 426.407H391.611L363.536 593.514C363.404 594.309 363.446 595.123 363.66 595.9C363.874 596.677 364.255 597.398 364.776 598.013C365.297 598.627 365.946 599.121 366.677 599.46C367.408 599.798 368.204 599.974 369.01 599.973V599.973C370.276 599.973 371.503 599.54 372.488 598.745C373.473 597.95 374.156 596.842 374.424 595.605L411.181 426.407H459.386L496.143 595.605C496.413 596.844 497.098 597.953 498.085 598.747C499.073 599.542 500.303 599.975 501.57 599.973V599.973C502.375 599.972 503.17 599.795 503.899 599.456C504.629 599.116 505.276 598.622 505.795 598.007C506.315 597.393 506.694 596.673 506.908 595.897C507.121 595.121 507.163 594.308 507.031 593.514V593.514Z" fill="#FFBE21"/>
<path d="M418.806 399.465L429.514 357.587H358.549C344.633 357.587 331.113 362.22 320.121 370.754C309.128 379.287 301.289 391.237 297.84 404.719L290.588 433.086H375.51C385.435 433.085 395.078 429.78 402.918 423.693C410.757 417.605 416.347 409.081 418.806 399.465V399.465Z" fill="#FFB494"/>
<path d="M295.203 420.614H385.299" stroke="#A15842" stroke-width="4" stroke-linecap="round" stroke-linejoin="round"/>
<path d="M368.111 420.194L383.9 358.466" stroke="#A15842" stroke-width="4" stroke-linecap="round" stroke-linejoin="round"/>
<path d="M512.891 356.155H470.273" stroke="#A15842" stroke-width="4" stroke-linecap="round" stroke-linejoin="round"/>
<path d="M520.881 326.19H466.277" stroke="#A15842" stroke-width="4" stroke-linecap="round" stroke-linejoin="round"/>
<path d="M321.983 312.658C321.983 312.658 268.558 327.208 245.864 338.562C208.448 357.267 208.574 369.613 185.761 438.726C164.698 502.599 162.381 533.557 133.328 534.782C111.147 535.714 103.875 542.972 100.279 552.921L188.051 594.566C189.057 595.042 190.207 595.116 191.266 594.772C192.324 594.427 193.211 593.692 193.745 592.715V592.715C194.288 591.716 194.421 590.545 194.113 589.451C193.806 588.356 193.084 587.425 192.1 586.855L190.255 585.79C198.413 575.908 214.148 554.852 229.836 522.869L239.825 527.53C239.825 527.53 255.959 506.561 258.516 482.775C261.846 452.057 259.848 431.355 273.879 419.335L437.49 312.632L321.983 312.658Z" fill="#FF7235"/>
<path d="M124.707 539.716C126.445 536.101 136.101 514.073 141.654 516.736C148.879 520.199 130.127 542.313 130.127 542.313L124.707 539.716Z" fill="#30242A"/>
<path d="M100.273 553.234L188.045 594.873C189.061 595.357 190.226 595.43 191.294 595.075C192.363 594.72 193.252 593.965 193.776 592.968C194.3 591.971 194.417 590.81 194.103 589.729C193.79 588.648 193.07 587.73 192.094 587.168L190.249 586.103L190.436 585.876L130.106 557.396C131.01 554.891 131.644 552.297 131.997 549.658C141.026 551.223 159.299 552.908 159.392 545.376C159.492 538.358 139.535 541.175 132.243 543.159C132.086 540.461 131.562 537.798 130.685 535.241C110.568 536.627 103.723 543.685 100.273 553.234Z" fill="#30242A"/>
<path d="M245.865 338.562C241.664 340.659 237.941 342.677 234.605 344.701L229.484 361.103L249.195 347.219L267.367 361.708L260.668 341.845L281.251 332.416L265.343 330.418C258.71 332.785 252.209 335.503 245.865 338.562V338.562Z" fill="#FFB494"/>
<path d="M303.937 330.025L302.605 338.702L311.289 335.366L303.937 330.025Z" fill="#FFB494"/>
<path d="M253.856 373.428L241.171 390.123L223.138 381.446L233.819 399.472L217.125 413.496L238.494 410.825L245.845 435.537L253.19 410.825L276.563 404.146L253.856 394.797V373.428Z" fill="#FFB494"/>
<path d="M182.539 500.895L184.097 496.446L205.405 495.314L188.092 483.528L195.803 465.063L178.363 476.689L175.034 473.093C172.37 481.863 170.013 489.674 167.709 496.54H167.816C168.069 495.787 168.322 495.028 168.575 494.256L182.539 500.895Z" fill="#FFB494"/>
<path d="M182.538 500.895L168.554 494.282C168.301 495.055 168.048 495.814 167.795 496.566C159.345 521.737 151.647 534.323 133.341 535.095C132.442 535.095 131.577 535.182 130.724 535.242C131.601 537.798 132.125 540.461 132.283 543.159C139.607 541.161 159.531 538.358 159.431 545.377C159.325 552.908 141.066 551.223 132.036 549.658C131.676 552.298 131.036 554.892 130.125 557.396L190.455 585.876C198.659 575.888 214.261 554.939 229.83 523.222L182.538 500.895Z" fill="#EAA58B"/>
<path d="M235.825 450.226L233.827 468.259L215.129 467.593L231.157 479.619L225.164 500.988L241.205 486.957L255.622 496.573C256.022 495.299 256.388 494.009 256.721 492.704L251.194 478.94L259.757 469.557C259.897 467.813 260.03 466.095 260.157 464.423L245.201 466.92L235.825 450.226Z" fill="#FFB494"/>
<path d="M194.173 412.743C192.489 417.95 190.677 423.604 188.68 429.75L206.446 430.836L194.173 412.743Z" fill="#FFB494"/>
<path d="M256.906 575.422C257.186 571.426 258.058 547.387 264.198 547.82C272.189 548.38 262.899 575.841 262.899 575.841L256.906 575.422Z" fill="#30242A"/>
<path d="M404.796 313.637C404.796 313.637 338.013 326.023 301.282 341.379C264.198 356.887 264.558 384.429 271.23 459.242C277.223 526.218 287.931 558.741 265.903 568.756C245.7 577.945 238.681 589.465 239.64 600H339.092C339.652 600 340.207 599.889 340.725 599.675C341.243 599.46 341.714 599.146 342.11 598.75C342.506 598.353 342.821 597.883 343.035 597.365C343.25 596.847 343.36 596.292 343.36 595.731V595.731C343.36 594.599 342.91 593.514 342.11 592.713C341.309 591.913 340.224 591.463 339.092 591.463H337.414C340.55 581.202 345.098 561.171 345.724 528.023H358.056C358.056 528.023 364.396 498.724 357.391 472.594C350.066 445.219 343.367 440.544 339.365 421.846H399.209C444.909 421.846 479.117 379.575 469.175 334.973C466.072 321.036 461.57 313.664 461.57 313.664L404.796 313.637Z" fill="#FF7235"/>
<path d="M363.391 352.726L351.131 368.148L332.04 361.589L343.354 380.107L328.664 400.144L348.028 392.127L358.823 412.024L360.048 390.122L378.746 386.12L362.725 376.099L363.391 352.726Z" fill="#FFB494"/>
<path d="M336.713 471.775L348.033 490.293L333.344 510.33L352.708 502.339L359.886 515.571C360.939 505.289 361.458 490.08 358.102 475.477L355.811 478.36L336.713 471.775Z" fill="#FFB494"/>
<path d="M286.787 527.996L285.928 517.675L307.609 509.311L287.086 505.056L289.35 482.529L276.032 499.955L275.633 499.789C276.911 510.543 278.03 519.939 278.656 528.07V527.996H286.787Z" fill="#FFB494"/>
<path d="M339.091 591.437H337.413C340.549 581.175 345.097 561.145 345.723 527.996H278.634V528.056C278.688 528.722 278.734 529.388 278.781 530.054C278.781 530.114 278.781 530.181 278.781 530.241C280.172 551.05 277.902 563.222 265.876 568.689C245.672 577.879 238.654 589.399 239.613 599.933H339.091C340.223 599.933 341.309 599.484 342.109 598.683C342.91 597.883 343.359 596.797 343.359 595.665C343.359 594.533 342.91 593.447 342.109 592.647C341.309 591.846 340.223 591.397 339.091 591.397V591.437Z" fill="#EAA58B"/>
<path d="M428.133 315.362L397.455 318.079L400.651 330.411L381.027 340.879L405.472 344.149L413.743 362.468L422.246 343.496L447.111 339.567L425.516 328.447L428.133 315.362Z" fill="#FFB494"/>
<path d="M281.918 402.142L289.243 378.769L310.612 382.098L293.917 367.409L305.904 353.385L283.869 361.376L280.347 355.336C274.68 361.755 271.257 369.726 269.426 379.974L273.181 380.094L281.918 402.142Z" fill="#FFB494"/>
<path d="M339.091 328.82C334.583 330.072 330.094 331.384 325.713 332.735L343.366 344.721L339.091 328.82Z" fill="#FFB494"/>
<path d="M309.964 436.868L300.615 417.504L295.94 438.873L278.58 437.541L294.602 451.565L284.586 474.938L301.973 458.73L316.383 475.344L311.968 450.226L326.658 430.862L309.964 436.868Z" fill="#FFB494"/>
<path d="M270.325 583.626C279.155 581.189 296.388 574.916 293.272 568.064C290.368 561.671 273.521 572.725 267.775 577.646C266.324 574.984 264.471 572.563 262.281 570.468C244.848 579.344 238.728 590.092 239.64 599.973H339.092C340.224 599.973 341.31 599.524 342.11 598.723C342.911 597.923 343.36 596.837 343.36 595.705V595.705C343.36 594.573 342.911 593.487 342.11 592.687C341.31 591.886 340.224 591.437 339.092 591.437H271.903C271.653 588.785 271.124 586.167 270.325 583.626V583.626Z" fill="#30242A"/>
<path d="M339.092 423.318L321.898 423.078" stroke="#A15842" stroke-width="4" stroke-miterlimit="10" stroke-linecap="round"/>
<path d="M351.876 325.903C334.063 330.444 315.025 336.018 300.602 342.038C269.837 354.923 264.85 376.072 267.839 425.668" stroke="#A15842" stroke-width="4" stroke-miterlimit="10" stroke-linecap="round"/>
<path d="M577.937 322.008H561.582V599.973H577.937V322.008Z" fill="#FFBE21"/>
<path d="M577.937 325.83H561.582" stroke="#A15842" stroke-width="4" stroke-miterlimit="10"/>
<path d="M340.684 112.99C331.361 111.658 310.006 121.68 309.3 141.49C308.594 161.3 326.28 167.666 329.11 169.085L370.15 162.712L372.98 117.431L340.684 112.99Z" fill="#A15842"/>
<path d="M413.186 63.7929C430.801 63.7929 445.082 49.5124 445.082 31.8965C445.082 14.2805 430.801 0 413.186 0C395.57 0 381.289 14.2805 381.289 31.8965C381.289 49.5124 395.57 63.7929 413.186 63.7929Z" fill="#A15842"/>
<path d="M392.496 53.8312C394.44 54.7301 378.066 15.8751 369.709 21.9347C361.845 27.6548 382.621 49.2765 392.496 53.8312Z" fill="#30242A"/>
<path d="M393.4 56.2087C395.184 58.3396 436.963 43.7232 431.183 35.2929C425.656 27.1823 391.615 54.0712 393.4 56.2087Z" fill="#30242A"/>
<path d="M448.863 163.071C448.863 163.071 476.911 139.698 458.852 113.655C447.358 97.0543 416.108 103.667 416.108 103.667C416.867 94.5505 419.344 68.2875 399.594 53.8576C379.843 39.4276 354.785 47.0255 345.656 58.4123C336.526 69.7991 338.824 91.0745 335.787 106.264C332.751 121.453 334.775 131.781 344.138 136.642C352.655 141.063 362.676 138.393 362.676 138.393L361.611 154.421C361.611 154.421 342.3 155.147 330.467 159.429C301.953 169.75 251.858 240.535 251.858 240.535C220.474 239.203 191.088 237.872 191.088 237.872L206.45 283.286C206.45 283.286 245.179 295.971 273.226 288.613C301.68 281.162 328.656 241.201 328.656 241.201L337.978 267.91L321.95 312.652H461.522L438.149 271.246C442.191 234.529 448.863 163.071 448.863 163.071Z" fill="#EAA58B"/>
<path d="M404.015 152.757L367.391 219.167L352.408 155.087C345.822 155.753 337.046 157.045 330.533 159.402C301.953 169.75 251.858 240.535 251.858 240.535C220.474 239.203 191.088 237.872 191.088 237.872L206.45 283.286C206.45 283.286 245.179 295.971 273.226 288.613C301.68 281.162 328.656 241.201 328.656 241.201L337.978 267.91L321.95 312.652H461.522L438.149 271.253C442.144 234.522 448.803 163.065 448.803 163.065C442.62 159.3 435.85 156.599 428.773 155.074C420.802 153.276 412.039 154.348 404.015 152.757Z" fill="#FB4718"/>
<path d="M214.348 307.984H330.001L303.705 224.933C302.932 222.486 301.399 220.348 299.329 218.831C297.258 217.314 294.758 216.496 292.192 216.496H194.451C192.552 216.495 190.679 216.942 188.985 217.801C187.291 218.659 185.824 219.906 184.702 221.438C183.58 222.971 182.836 224.746 182.529 226.62C182.223 228.495 182.363 230.415 182.938 232.225L204.673 300.905C205.325 302.96 206.614 304.753 208.354 306.026C210.093 307.299 212.193 307.985 214.348 307.984V307.984Z" fill="#30242A"/>
<path d="M231.583 254.066C234.652 249.871 248.576 260.952 249.602 261.864C250.135 260.952 257.386 249.878 262.7 254.066C267.315 257.702 257.173 273.943 254.476 278.085C254.363 278.211 254.225 278.311 254.071 278.38C253.916 278.449 253.75 278.484 253.581 278.484C253.412 278.484 253.245 278.449 253.09 278.38C252.936 278.311 252.798 278.211 252.685 278.085C247.764 273.943 228.919 257.702 231.583 254.066Z" fill="#FF7235"/>
<path d="M248.452 256.875C249.614 256.513 249.659 253.336 248.551 249.779C247.443 246.222 245.603 243.632 244.44 243.994C243.278 244.356 243.234 247.533 244.342 251.09C245.45 254.647 247.29 257.237 248.452 256.875Z" fill="#FF7235"/>
<path d="M397.157 298.635C397.491 299.709 397.569 300.847 397.383 301.957C397.198 303.067 396.754 304.118 396.088 305.025C395.422 305.932 394.552 306.67 393.549 307.179C392.546 307.689 391.436 307.955 390.311 307.957H214.348C212.192 307.958 210.093 307.272 208.353 306C206.614 304.727 205.324 302.933 204.672 300.879L203.953 298.608L397.157 298.635Z" fill="#30242A"/>
<path d="M606.116 307.984H90.5723V324.678H606.116V307.984Z" fill="#FFBE21"/>
<path d="M503.227 399.465L513.934 357.587H451.473C437.558 357.588 424.039 362.22 413.048 370.754C402.056 379.288 394.218 391.238 390.77 404.719L383.512 433.086H459.923C469.85 433.086 479.494 429.781 487.334 423.693C495.175 417.606 500.766 409.082 503.227 399.465V399.465Z" fill="#FFB494"/>
<path d="M384.992 422.106L382.521 432.547" stroke="#A15842" stroke-width="4" stroke-linecap="round" stroke-linejoin="round"/>
<path d="M185.522 240.276C177.751 244.158 173.869 250.63 173.869 255.165C173.869 261.784 180.608 263.029 180.608 263.029C180.608 263.029 175.581 270.934 184.324 274.643C184.324 274.643 184.324 282.78 192.468 282.78C192.468 282.78 191.389 289.126 199.886 289.725C208.383 290.324 217.126 285.89 217.865 283.02C218.711 279.63 216.427 276.793 210.26 275.894C210.26 275.894 218.584 272.006 217.266 267.098C215.947 262.19 210.32 262.304 210.32 262.304C210.32 262.304 215.707 259.074 212.831 254.313C209.954 249.552 204.454 251.203 204.454 251.203C204.454 251.203 205.892 247.874 203.375 245.336C200.379 242.34 187.493 246.122 187.493 246.122L185.522 240.276Z" fill="#EAA58A"/>
<path d="M192.527 283.093C199.539 281.412 206.342 278.955 212.811 275.768" stroke="#A15842" stroke-width="4" stroke-miterlimit="10" stroke-linecap="round"/>
<path d="M184.303 274.603C194.025 271.937 203.307 267.87 211.858 262.53" stroke="#A15842" stroke-width="4" stroke-miterlimit="10" stroke-linecap="round"/>
<path d="M179.941 263.975C188.951 261.31 197.463 257.186 205.139 251.769" stroke="#A15842" stroke-width="4" stroke-miterlimit="10" stroke-linecap="round"/>
<path d="M458.886 113.655C447.393 97.0543 416.142 103.667 416.142 103.667C416.901 94.5505 419.378 68.2875 399.628 53.8576C379.877 39.4276 354.819 47.0255 345.69 58.4123C341.974 63.0736 340.156 69.3463 339.098 76.1917C345.157 77.2106 354.047 75.1263 354.047 75.1263C366.2 88.7972 377.087 90.968 377.087 90.968C385.591 82.4645 400.507 82.7442 402.931 95.6293C405.448 109.007 384.079 115.02 384.079 115.02C384.079 115.02 382.081 139.059 392.736 147.742C396.006 150.334 399.872 152.067 403.983 152.783C411.973 154.375 420.77 153.303 428.801 155.087C435.877 156.613 442.648 159.314 448.831 163.078C451.271 160.928 453.5 158.551 455.49 155.98C462.495 147.096 470.872 130.968 458.886 113.655Z" fill="#A15842"/>
<path d="M366.725 70.2522C362.73 73.5817 358.068 75.5794 352.701 76.9112" stroke="#EAA58B" stroke-width="4" stroke-miterlimit="10" stroke-linecap="round"/>
<path d="M362.457 139.892C365.558 138.857 368.549 137.519 371.387 135.896" stroke="#A15842" stroke-width="4" stroke-miterlimit="10" stroke-linecap="round"/>
<path d="M384.898 101.589L390.971 97.7935" stroke="#A15842" stroke-width="4" stroke-miterlimit="10" stroke-linecap="round"/>
<path d="M350.051 119.415C351.309 120.194 356.044 120.8 357.922 117.185" stroke="#A15842" stroke-width="4" stroke-miterlimit="10" stroke-linecap="round"/>
<path d="M362.426 102.328C363.684 102.328 364.703 101.309 364.703 100.051C364.703 98.7933 363.684 97.7737 362.426 97.7737C361.168 97.7737 360.148 98.7933 360.148 100.051C360.148 101.309 361.168 102.328 362.426 102.328Z" fill="#30242A"/>
<path d="M343.547 99.3121C344.805 99.3121 345.824 98.2925 345.824 97.0347C345.824 95.7769 344.805 94.7573 343.547 94.7573C342.289 94.7573 341.27 95.7769 341.27 97.0347C341.27 98.2925 342.289 99.3121 343.547 99.3121Z" fill="#30242A"/>
<path d="M349.958 105.831C349.505 107.262 349.112 108.821 349.372 109.34C349.729 109.998 350.271 110.538 350.93 110.892" stroke="#A15842" stroke-width="4" stroke-miterlimit="10" stroke-linecap="round"/>
<path d="M387.755 123.903C392.161 123.903 395.732 120.332 395.732 115.926C395.732 111.52 392.161 107.948 387.755 107.948C383.349 107.948 379.777 111.52 379.777 115.926C379.777 120.332 383.349 123.903 387.755 123.903Z" fill="#F5EBDD"/>
<path d="M349.379 98.315C350.759 91.2214 346.701 84.4638 340.315 83.2213C333.929 81.9788 327.633 86.7221 326.253 93.8156C324.873 100.909 328.931 107.667 335.317 108.909C341.703 110.152 347.999 105.409 349.379 98.315Z" stroke="#30242A" stroke-width="4" stroke-miterlimit="10" stroke-linecap="round"/>
<path d="M378.312 101.863C379.692 94.7691 375.634 88.0114 369.248 86.7689C362.862 85.5264 356.567 90.2697 355.186 97.3633C353.806 104.457 357.864 111.214 364.25 112.457C370.636 113.699 376.932 108.956 378.312 101.863Z" stroke="#30242A" stroke-width="4" stroke-miterlimit="10" stroke-linecap="round"/>
<path d="M349.926 97.241L354.527 97.7337" stroke="#30242A" stroke-width="4" stroke-miterlimit="10" stroke-linecap="round"/>
<path d="M417.667 104.546L416.342 113.069" stroke="#30242A" stroke-width="4" stroke-miterlimit="10" stroke-linecap="round"/>
<path d="M321.318 223.841L327.764 242.6" stroke="#30242A" stroke-width="4" stroke-linecap="round" stroke-linejoin="round"/>
<path d="M355.373 266.579H338.426" stroke="#30242A" stroke-width="4" stroke-linecap="round" stroke-linejoin="round"/>
<path d="M368.73 218.501L374.071 244.544V268.583" stroke="#30242A" stroke-width="4" stroke-linecap="round" stroke-linejoin="round"/>
<path d="M333.212 158.823L343.353 181.77L331.334 180.438L374.071 244.544" stroke="#30242A" stroke-width="4" stroke-linecap="round" stroke-linejoin="round"/>
<path d="M432.024 156.093L414.81 180.438L430.838 179.1L372.066 231.186" stroke="#30242A" stroke-width="4" stroke-linecap="round" stroke-linejoin="round"/>
<path d="M440.973 237.725L428.168 219.839" stroke="#30242A" stroke-width="4" stroke-linecap="round" stroke-linejoin="round"/>
<path d="M455.791 303.649C448.819 301.325 436.306 296.837 428.762 292.329" stroke="#30242A" stroke-width="4" stroke-linecap="round" stroke-linejoin="round"/>
<path d="M263.479 137.954C270.713 137.954 276.577 132.09 276.577 124.856C276.577 117.622 270.713 111.758 263.479 111.758C256.245 111.758 250.381 117.622 250.381 124.856C250.381 132.09 256.245 137.954 263.479 137.954Z" fill="#FFB494"/>
<path d="M224.332 72.7294L216.706 63.534C215.532 62.1186 213.433 61.9228 212.017 63.0966L211.853 63.2326C210.438 64.4065 210.242 66.5055 211.416 67.9209L219.042 77.1163C220.216 78.5317 222.315 78.7275 223.73 77.5537L223.894 77.4176C225.31 76.2438 225.505 74.1448 224.332 72.7294Z" fill="#3EC1F3"/>
<path d="M238.047 83.9032L230.376 74.6472L92.489 188.982C91.2865 189.98 90.5296 191.414 90.3848 192.97C90.2399 194.526 90.719 196.076 91.7166 197.279L91.8697 197.465C92.3633 198.06 92.9693 198.553 93.653 198.914C94.3368 199.275 95.085 199.497 95.8549 199.569C96.6248 199.641 97.4012 199.56 98.1399 199.332C98.8786 199.103 99.5651 198.731 100.16 198.238L143.27 162.479V287.954H155.303V152.491L238.047 83.9032Z" fill="#3EC1F3"/>
<path d="M215.826 86.5667L219.668 91.2279C221.007 92.8451 222.024 94.7029 222.665 96.7016" stroke="#3EC1F3" stroke-width="4" stroke-miterlimit="10"/>
<path d="M149.285 165.256C157.953 165.256 164.98 158.229 164.98 149.56C164.98 140.892 157.953 133.865 149.285 133.865C140.617 133.865 133.59 140.892 133.59 149.56C133.59 158.229 140.617 165.256 149.285 165.256Z" fill="#3EC1F3"/>
<path d="M149.283 155.594C152.615 155.594 155.316 152.892 155.316 149.56C155.316 146.229 152.615 143.527 149.283 143.527C145.951 143.527 143.25 146.229 143.25 149.56C143.25 152.892 145.951 155.594 149.283 155.594Z" fill="#3EC1F3"/>
<path d="M274.233 117.418L254.156 134.012" stroke="#A15842" stroke-width="4" stroke-miterlimit="10"/>
<path d="M248.222 82.225C244 81.729 240.132 79.6256 237.421 76.3518L232.094 69.9125C230.211 67.6457 227.505 66.2189 224.571 65.9455C221.637 65.672 218.714 66.5744 216.445 68.4542V68.4542C215.322 69.3854 214.393 70.5287 213.712 71.8188C213.031 73.1089 212.611 74.5206 212.476 75.9731C212.34 77.4256 212.492 78.8906 212.923 80.2844C213.354 81.6782 214.055 82.9734 214.987 84.0962L220.314 90.5553C223.013 93.8198 224.355 97.9962 224.063 102.222L222.731 121.693C222.071 131.22 224.489 140.707 229.63 148.755L231.334 151.418L295.214 98.4329L292.923 96.2821C285.97 89.7406 277.1 85.6064 267.619 84.489L248.222 82.225Z" fill="#3EC1F3"/>
<path d="M155.305 287.954H143.272L125.486 292.801C122.156 293.71 119.217 295.688 117.122 298.432C115.027 301.176 113.892 304.532 113.893 307.984H184.677C184.678 304.531 183.542 301.174 181.446 298.43C179.349 295.687 176.409 293.709 173.078 292.801L155.305 287.954Z" fill="#3EC1F3"/>
<path d="M283.096 89.0104L224.637 137.328" stroke="#3EC1F3" stroke-width="4" stroke-miterlimit="10" stroke-linecap="round"/>
<path d="M142.979 286.576H155.304" stroke="#3EC1F3" stroke-width="4" stroke-miterlimit="10" stroke-linecap="round"/>
<path d="M116.229 299.66H181.939" stroke="#3EC1F3" stroke-width="4" stroke-miterlimit="10" stroke-linecap="round"/>
<path d="M428.834 248.826C420.616 248.09 412.354 247.999 404.122 248.553C392.349 249.518 376.521 252.601 370.162 255.678C363.802 258.754 339.45 269.615 346.01 273.257C352.003 276.587 364.575 271.579 364.575 271.579C364.575 271.579 352.029 283.113 349.872 287.941C347.714 292.768 354.846 295.478 354.846 295.478C356.724 303.722 365.127 300.18 365.127 300.18C370.421 311.44 399.022 287.042 399.022 287.042C405.826 287.749 412.697 287.459 419.418 286.183C419.418 286.183 423.041 288.214 428.854 291.037L428.834 248.826Z" fill="#EAA58A"/>
<path d="M500.285 305.314C553.71 279.937 476.266 185.12 448.864 163.072L433.509 225.18L452.873 251.889C444.389 250.424 436.279 249.419 428.834 248.826V291.037C445.788 299.281 481.413 314.304 500.285 305.314Z" fill="#FB4718"/>
<path d="M362.018 272.279C366.759 268.356 374.63 262.017 380.503 258.195" stroke="#A15842" stroke-width="4" stroke-miterlimit="10" stroke-linecap="round"/>
<path d="M386.975 267.564C373.331 276.401 360.899 288.207 354.746 294.387" stroke="#A15842" stroke-width="4" stroke-miterlimit="10" stroke-linecap="round"/>
<path d="M393.029 277.559C383.706 283.958 372.885 293.66 365.82 300.319" stroke="#A15842" stroke-width="4" stroke-miterlimit="10" stroke-linecap="round"/>
<path d="M553.311 273.97C554.32 273.972 555.288 274.374 556.002 275.087C556.716 275.801 557.118 276.769 557.12 277.779V278.345C557.118 279.355 556.716 280.322 556.002 281.036C555.288 281.75 554.32 282.152 553.311 282.154H533.687V273.97H553.311ZM553.311 268.643H529.079C528.984 268.643 528.89 268.662 528.802 268.698C528.714 268.735 528.635 268.788 528.568 268.856C528.501 268.923 528.448 269.003 528.412 269.091C528.376 269.179 528.359 269.274 528.359 269.369V286.782C528.359 286.973 528.435 287.155 528.57 287.29C528.705 287.425 528.888 287.501 529.079 287.501H553.311C554.512 287.501 555.702 287.264 556.811 286.804C557.921 286.343 558.929 285.668 559.778 284.818C560.626 283.968 561.299 282.958 561.757 281.847C562.215 280.737 562.449 279.546 562.447 278.345V277.759C562.447 275.336 561.484 273.012 559.771 271.299C558.057 269.585 555.734 268.623 553.311 268.623V268.643Z" fill="#3EC1F3"/>
<path d="M524.011 265.773C504.167 265.773 494.998 249.958 494.998 249.958L508.316 307.984H539.666L552.984 249.958C549.891 254.834 545.61 258.843 540.542 261.61C535.473 264.376 529.785 265.809 524.011 265.773Z" fill="#3EC1F3"/>
<path d="M524.011 265.773C529.792 265.816 535.488 264.386 540.564 261.619C545.64 258.853 549.928 254.84 553.024 249.958H494.998C494.998 249.958 504.167 265.773 524.011 265.773Z" fill="#FFBE21"/>
</svg>
