<svg width="177" height="40" viewBox="0 0 177 40" fill="none" xmlns="http://www.w3.org/2000/svg">
<path d="M62.45 30H66.71L68.06 26.1H76.55L77.9 30H82.16L74.36 8.1H70.25L62.45 30ZM72.32 13.89L75.2 22.2H69.44L72.32 13.89ZM98.521 12.45H94.471V22.08C94.471 25.17 92.821 26.85 90.571 26.85C88.021 26.85 86.821 25.17 86.821 22.44V12.45H82.711V22.86C82.711 27.63 85.261 30.36 89.461 30.36C91.711 30.36 93.391 29.46 94.501 27.99V30H98.521V12.45ZM100.245 16.08H103.245V22.68C103.245 28.26 104.895 30 110.325 30H110.895V26.19C107.775 26.19 107.325 25.71 107.325 22.65V16.08H110.895V12.45H107.325V6.99L103.245 9.78V12.45H100.245V16.08ZM120.792 30.36C125.832 30.36 129.882 26.28 129.882 21.24C129.882 16.11 125.832 12.09 120.792 12.09C115.722 12.09 111.702 16.11 111.702 21.24C111.702 26.28 115.722 30.36 120.792 30.36ZM120.792 26.55C117.882 26.55 115.692 24.15 115.692 21.24C115.692 18.27 117.882 15.9 120.792 15.9C123.672 15.9 125.892 18.27 125.892 21.24C125.892 24.15 123.672 26.55 120.792 26.55ZM128.036 38.07H128.606C133.976 38.07 135.746 36.3 135.746 30.75V12.45H131.666V30.72C131.666 33.81 131.186 34.26 128.036 34.26V38.07ZM131.156 8.16C131.156 9.69 132.056 10.68 133.706 10.68C135.296 10.68 136.256 9.69 136.256 8.16C136.256 6.63 135.296 5.61 133.706 5.61C132.146 5.61 131.156 6.63 131.156 8.16ZM146.573 30.36C151.613 30.36 155.663 26.28 155.663 21.24C155.663 16.11 151.613 12.09 146.573 12.09C141.503 12.09 137.483 16.11 137.483 21.24C137.483 26.28 141.503 30.36 146.573 30.36ZM146.573 26.55C143.663 26.55 141.473 24.15 141.473 21.24C141.473 18.27 143.663 15.9 146.573 15.9C149.453 15.9 151.673 18.27 151.673 21.24C151.673 24.15 149.453 26.55 146.573 26.55ZM167.227 30.36C171.427 30.36 175.807 27 175.807 21.24C175.807 15.42 171.577 12.09 167.167 12.09C164.797 12.09 162.727 13.11 161.497 14.67V7.8H157.447V30H161.467V27.72C162.757 29.4 164.827 30.36 167.227 30.36ZM166.537 26.64C163.537 26.64 161.317 24.21 161.317 21.18C161.317 18.18 163.537 15.78 166.537 15.78C169.507 15.78 171.817 18.15 171.817 21.18C171.817 24.24 169.507 26.64 166.537 26.64Z" fill="#FB4718"/>
<g clip-path="url(#clip0_1_15)">
<path d="M11.5966 15.0371L19.791 19.5586L19.2971 10.1076C18.4499 14.4612 15.884 16.1057 11.5966 15.0371Z" fill="#FB4718"/>
<path d="M2.62789 10.0897L11.5956 15.038L19.7899 19.5595L19.296 10.1085L18.8355 1.32138C18.8924 12.6399 13.4902 15.5621 2.62789 10.0897Z" fill="#FB4718"/>
<path d="M2.62789 10.0897L11.5956 15.038L19.7899 19.5595L19.296 10.1085L18.8355 1.32138C20.0762 14.6775 14.7374 17.7085 2.62789 10.0897Z" fill="#FB4718"/>
<path d="M9.46361 8.99682C11.1178 9.95189 13.1808 9.47568 14.0714 7.93319C14.9619 6.3907 14.3428 4.36602 12.6886 3.41095C11.0344 2.45588 8.97142 2.93208 8.08086 4.47457C7.1903 6.01707 7.80938 8.04175 9.46361 8.99682Z" fill="#FB4718"/>
<path d="M37.5251 10.0475L28.5124 14.8872L20.2785 19.3089L19.9723 9.37575L19.6879 0.140095C20.6186 12.0599 26.5633 15.361 37.5251 10.0475Z" fill="#FB4718"/>
<path opacity="0.79" d="M37.5251 10.0475L28.5124 14.8872L20.2785 19.3089L19.9723 9.37575L19.6879 0.140095C19.4683 14.05 25.4655 17.2625 37.5251 10.0475Z" fill="#FB4718"/>
<path d="M28.5125 14.8872L20.2786 19.3089L19.9724 9.37573C21.2447 13.996 24.0905 15.8338 28.5125 14.8872Z" fill="#FB4718"/>
<path d="M26.5902 8.5427C28.3299 9.54711 30.4994 9.04631 31.436 7.42413C32.3725 5.80195 31.7215 3.67267 29.9818 2.66826C28.2421 1.66385 26.0725 2.16465 25.136 3.78683C24.1994 5.40901 24.8505 7.53829 26.5902 8.5427Z" fill="#FB4718"/>
<path d="M37.4056 29.8523L28.5713 24.6685L20.4995 19.9323L28.865 15.524L36.6437 11.4264C26.8973 17.1659 27.152 23.3074 37.4056 29.8523Z" fill="#FB4718"/>
<path d="M37.4056 29.8523L28.5713 24.6685L20.4995 19.9323L28.865 15.524L36.6437 11.4264C26.8973 17.1659 27.152 23.3074 37.4056 29.8523Z" fill="#FFB02F"/>
<path d="M28.5715 24.6684L20.4998 19.9322L28.8652 15.5239C25.5613 18.4787 25.4626 21.5268 28.5715 24.6684Z" fill="#FFB02F"/>
<path d="M34.8074 23.3906C36.4616 24.3457 38.5245 23.8695 39.4151 22.327C40.3057 20.7845 39.6866 18.7598 38.0324 17.8047C36.3781 16.8497 34.3152 17.3259 33.4246 18.8684C32.534 20.4109 33.1531 22.4355 34.8074 23.3906Z" fill="#FFB02F"/>
<path d="M11.5 15.2034L19.5129 20.0392L11.0812 24.3369C14.4279 21.4264 14.5691 18.3821 11.5 15.2034Z" fill="#FB4718"/>
<path d="M2.73047 9.91138L11.4997 15.2034L19.5126 20.0392L11.0809 24.337L3.2407 28.3317C13.0719 22.7208 12.9014 16.5813 2.73047 9.91138Z" fill="#015BFA"/>
<path d="M2.73103 9.91128L11.5003 15.2033L19.5132 20.0391L11.0814 24.3369L3.24126 28.3316C15.4284 22.7281 15.3838 16.589 2.73103 9.91128Z" fill="#015BFA"/>
<path d="M1.97923 21.9634C3.63346 22.9184 5.69642 22.4422 6.58698 20.8997C7.47754 19.3573 6.85846 17.3326 5.20423 16.3775C3.55 15.4224 1.48704 15.8986 0.596482 17.4411C-0.294077 18.9836 0.325001 21.0083 1.97923 21.9634Z" fill="#015BFA"/>
<path d="M20.1428 40.1523L19.8278 29.9272L19.5402 20.5855L10.7847 25.287L2.64417 29.6585C13.4324 24.5046 19.2636 28.0023 20.1428 40.1523Z" fill="#015BFA"/>
<path opacity="0.79" d="M20.1428 40.1523L19.8278 29.9272L19.5402 20.5855L10.7847 25.287L2.64417 29.6585C14.5806 22.5134 20.3609 26.1018 20.1428 40.1523Z" fill="#015BFA"/>
<path d="M19.8282 29.9272L19.5406 20.5856L10.7851 25.287C15.4225 24.0788 18.4371 25.6244 19.8282 29.9272Z" fill="#015BFA"/>
<path d="M9.97908 37.31C11.7188 38.3144 13.8883 37.8136 14.8249 36.1915C15.7614 34.5693 15.1104 32.44 13.3707 31.4356C11.631 30.4312 9.46146 30.932 8.5249 32.5542C7.58833 34.1764 8.23939 36.3056 9.97908 37.31Z" fill="#015BFA"/>
<path d="M37.2348 30.1475L28.3283 25.0886L20.1908 20.4664L20.5558 29.9152L20.8965 38.7006C20.9939 27.3902 26.4394 24.5409 37.2348 30.1475Z" fill="#FB4718"/>
<path d="M37.2348 30.1475L28.3283 25.0886L20.1908 20.4664L20.5558 29.9152L20.8965 38.7006C20.9939 27.3902 26.4394 24.5409 37.2348 30.1475Z" fill="#FFB02F"/>
<path d="M28.3292 25.0886L20.1917 20.4664L20.5567 29.9153C21.4637 25.5766 24.054 23.967 28.3292 25.0886Z" fill="#FFB02F"/>
<path d="M27.114 36.7141C28.7682 37.6692 30.8312 37.193 31.7218 35.6505C32.6123 34.108 31.9932 32.0833 30.339 31.1282C28.6848 30.1732 26.6218 30.6494 25.7312 32.1919C24.8407 33.7344 25.4598 35.759 27.114 36.7141Z" fill="#FFB02F"/>
<path d="M19.3784 21.0789C20.1415 21.5195 21.0933 21.2998 21.5041 20.5882C21.915 19.8766 21.6294 18.9425 20.8662 18.5019C20.103 18.0613 19.1513 18.281 18.7405 18.9926C18.3296 19.7042 18.6152 20.6382 19.3784 21.0789Z" fill="#FB4718"/>
</g>
<defs>
<clipPath id="clip0_1_15">
<rect width="40" height="40" fill="white"/>
</clipPath>
</defs>
</svg>
